<?xml version="1.0" encoding="UTF-8" standalone="no"?>
<!DOCTYPE svg PUBLIC "-//W3C//DTD SVG 1.1//EN"
 "http://www.w3.org/Graphics/SVG/1.1/DTD/svg11.dtd">
<!-- Generated by graphviz version 3.0.0 (20220226.1711)
 -->
<!-- Pages: 1 -->
<svg width="708pt" height="404pt"
 viewBox="0.00 0.00 707.84 404.00" xmlns="http://www.w3.org/2000/svg" xmlns:xlink="http://www.w3.org/1999/xlink">
<g id="graph0" class="graph" transform="scale(1 1) rotate(0) translate(4 400)">
<polygon fill="white" stroke="transparent" points="-4,4 -4,-400 703.84,-400 703.84,4 -4,4"/>
<!-- [root] ___ROOT___#build -->
<g id="node1" class="node">
<title>[root] ___ROOT___#build</title>
<ellipse fill="none" stroke="black" cx="399.06" cy="-90" rx="105.88" ry="18"/>
<text text-anchor="middle" x="399.06" y="-86.3" font-family="Times,serif" font-size="14.00">[root] ___ROOT___#build</text>
</g>
<!-- [root] ___ROOT___ -->
<g id="node2" class="node">
<title>[root] ___ROOT___</title>
<ellipse fill="none" stroke="black" cx="399.06" cy="-18" rx="83.39" ry="18"/>
<text text-anchor="middle" x="399.06" y="-14.3" font-family="Times,serif" font-size="14.00">[root] ___ROOT___</text>
</g>
<!-- [root] ___ROOT___#build&#45;&gt;[root] ___ROOT___ -->
<g id="edge1" class="edge">
<title>[root] ___ROOT___#build&#45;&gt;[root] ___ROOT___</title>
<path fill="none" stroke="black" d="M399.06,-71.7C399.06,-63.98 399.06,-54.71 399.06,-46.11"/>
<polygon fill="black" stroke="black" points="402.56,-46.1 399.06,-36.1 395.56,-46.1 402.56,-46.1"/>
</g>
<!-- [root] config&#45;min#build -->
<g id="node3" class="node">
<title>[root] config&#45;min#build</title>
<ellipse fill="none" stroke="black" cx="560.06" cy="-162" rx="94.78" ry="18"/>
<text text-anchor="middle" x="560.06" y="-158.3" font-family="Times,serif" font-size="14.00">[root] config&#45;min#build</text>
</g>
<!-- [root] config&#45;min#build&#45;&gt;[root] ___ROOT___#build -->
<g id="edge2" class="edge">
<title>[root] config&#45;min#build&#45;&gt;[root] ___ROOT___#build</title>
<path fill="none" stroke="black" d="M523.93,-145.29C500.58,-135.14 469.99,-121.84 444.93,-110.95"/>
<polygon fill="black" stroke="black" points="446.19,-107.68 435.63,-106.9 443.4,-114.1 446.19,-107.68"/>
</g>
<!-- [root] config&#45;react#build -->
<g id="node4" class="node">
<title>[root] config&#45;react#build</title>
<ellipse fill="none" stroke="black" cx="445.06" cy="-234" rx="97.48" ry="18"/>
<text text-anchor="middle" x="445.06" y="-230.3" font-family="Times,serif" font-size="14.00">[root] config&#45;react#build</text>
</g>
<!-- [root] config&#45;react#build&#45;&gt;[root] config&#45;min#build -->
<g id="edge3" class="edge">
<title>[root] config&#45;react#build&#45;&gt;[root] config&#45;min#build</title>
<path fill="none" stroke="black" d="M472.02,-216.59C487.74,-207.02 507.74,-194.85 524.71,-184.52"/>
<polygon fill="black" stroke="black" points="526.54,-187.5 533.26,-179.31 522.9,-181.52 526.54,-187.5"/>
</g>
<!-- [root] tsconfig#build -->
<g id="node5" class="node">
<title>[root] tsconfig#build</title>
<ellipse fill="none" stroke="black" cx="301.06" cy="-162" rx="83.39" ry="18"/>
<text text-anchor="middle" x="301.06" y="-158.3" font-family="Times,serif" font-size="14.00">[root] tsconfig#build</text>
</g>
<!-- [root] config&#45;react#build&#45;&gt;[root] tsconfig#build -->
<g id="edge4" class="edge">
<title>[root] config&#45;react#build&#45;&gt;[root] tsconfig#build</title>
<path fill="none" stroke="black" d="M412.02,-216.94C391.39,-206.91 364.64,-193.91 342.58,-183.19"/>
<polygon fill="black" stroke="black" points="343.97,-179.97 333.44,-178.74 340.91,-186.26 343.97,-179.97"/>
</g>
<!-- [root] tsconfig#build&#45;&gt;[root] ___ROOT___#build -->
<g id="edge12" class="edge">
<title>[root] tsconfig#build&#45;&gt;[root] ___ROOT___#build</title>
<path fill="none" stroke="black" d="M324.28,-144.41C337.13,-135.24 353.27,-123.7 367.27,-113.71"/>
<polygon fill="black" stroke="black" points="369.56,-116.37 375.66,-107.71 365.49,-110.68 369.56,-116.37"/>
</g>
<!-- [root] docs#build -->
<g id="node6" class="node">
<title>[root] docs#build</title>
<ellipse fill="none" stroke="black" cx="524.06" cy="-306" rx="71.49" ry="18"/>
<text text-anchor="middle" x="524.06" y="-302.3" font-family="Times,serif" font-size="14.00">[root] docs#build</text>
</g>
<!-- [root] docs#build&#45;&gt;[root] tsconfig#build -->
<g id="edge5" class="edge">
<title>[root] docs#build&#45;&gt;[root] tsconfig#build</title>
<path fill="none" stroke="black" d="M474,-293.01C422.81,-280.38 349.36,-261.09 339.06,-252 321.01,-236.07 311.27,-210.1 306.18,-190.32"/>
<polygon fill="black" stroke="black" points="309.53,-189.29 303.87,-180.34 302.71,-190.87 309.53,-189.29"/>
</g>
<!-- [root] ui#build -->
<g id="node7" class="node">
<title>[root] ui#build</title>
<ellipse fill="none" stroke="black" cx="623.06" cy="-234" rx="62.29" ry="18"/>
<text text-anchor="middle" x="623.06" y="-230.3" font-family="Times,serif" font-size="14.00">[root] ui#build</text>
</g>
<!-- [root] docs#build&#45;&gt;[root] ui#build -->
<g id="edge6" class="edge">
<title>[root] docs#build&#45;&gt;[root] ui#build</title>
<path fill="none" stroke="black" d="M547.02,-288.76C560.49,-279.24 577.67,-267.09 592.3,-256.75"/>
<polygon fill="black" stroke="black" points="594.42,-259.54 600.56,-250.91 590.38,-253.82 594.42,-259.54"/>
</g>
<!-- [root] ui#build&#45;&gt;[root] config&#45;min#build -->
<g id="edge13" class="edge">
<title>[root] ui#build&#45;&gt;[root] config&#45;min#build</title>
<path fill="none" stroke="black" d="M608.13,-216.41C600.4,-207.82 590.8,-197.16 582.22,-187.63"/>
<polygon fill="black" stroke="black" points="584.61,-185.05 575.32,-179.96 579.41,-189.73 584.61,-185.05"/>
</g>
<!-- [root] ui#build&#45;&gt;[root] tsconfig#build -->
<g id="edge14" class="edge">
<title>[root] ui#build&#45;&gt;[root] tsconfig#build</title>
<path fill="none" stroke="black" d="M576.62,-221.87C568.12,-219.88 559.33,-217.85 551.06,-216 489.57,-202.22 419.35,-187.42 369.03,-176.97"/>
<polygon fill="black" stroke="black" points="369.74,-173.54 359.23,-174.94 368.31,-180.4 369.74,-173.54"/>
</g>
<!-- [root] mocks#build -->
<g id="node8" class="node">
<title>[root] mocks#build</title>
<ellipse fill="none" stroke="black" cx="175.06" cy="-234" rx="79.09" ry="18"/>
<text text-anchor="middle" x="175.06" y="-230.3" font-family="Times,serif" font-size="14.00">[root] mocks#build</text>
</g>
<!-- [root] mocks#build&#45;&gt;[root] tsconfig#build -->
<g id="edge7" class="edge">
<title>[root] mocks#build&#45;&gt;[root] tsconfig#build</title>
<path fill="none" stroke="black" d="M203.65,-217.12C221.33,-207.3 244.21,-194.58 263.36,-183.94"/>
<polygon fill="black" stroke="black" points="265.1,-186.98 272.14,-179.06 261.7,-180.86 265.1,-186.98"/>
</g>
<!-- [root] purchase#build -->
<g id="node9" class="node">
<title>[root] purchase#build</title>
<ellipse fill="none" stroke="black" cx="107.06" cy="-306" rx="87.18" ry="18"/>
<text text-anchor="middle" x="107.06" y="-302.3" font-family="Times,serif" font-size="14.00">[root] purchase#build</text>
</g>
<!-- [root] purchase#build&#45;&gt;[root] tsconfig#build -->
<g id="edge9" class="edge">
<title>[root] purchase#build&#45;&gt;[root] tsconfig#build</title>
<path fill="none" stroke="black" d="M95.78,-288.11C84.4,-268.73 70.66,-236.95 87.06,-216 103.57,-194.9 166,-181.03 219.21,-172.79"/>
<polygon fill="black" stroke="black" points="219.99,-176.21 229.36,-171.27 218.96,-169.29 219.99,-176.21"/>
</g>
<!-- [root] purchase#build&#45;&gt;[root] mocks#build -->
<g id="edge8" class="edge">
<title>[root] purchase#build&#45;&gt;[root] mocks#build</title>
<path fill="none" stroke="black" d="M123.52,-288.05C131.96,-279.37 142.38,-268.64 151.63,-259.11"/>
<polygon fill="black" stroke="black" points="154.29,-261.4 158.75,-251.79 149.27,-256.52 154.29,-261.4"/>
</g>
<!-- [root] purchase&#45;server#build -->
<g id="node10" class="node">
<title>[root] purchase&#45;server#build</title>
<ellipse fill="none" stroke="black" cx="323.06" cy="-306" rx="111.28" ry="18"/>
<text text-anchor="middle" x="323.06" y="-302.3" font-family="Times,serif" font-size="14.00">[root] purchase&#45;server#build</text>
</g>
<!-- [root] purchase&#45;server#build&#45;&gt;[root] tsconfig#build -->
<g id="edge11" class="edge">
<title>[root] purchase&#45;server#build&#45;&gt;[root] tsconfig#build</title>
<path fill="none" stroke="black" d="M316.25,-287.62C312.56,-277.41 308.31,-264.16 306.06,-252 302.27,-231.59 301.08,-208.13 300.81,-190.42"/>
<polygon fill="black" stroke="black" points="304.31,-190.19 300.74,-180.22 297.31,-190.24 304.31,-190.19"/>
</g>
<!-- [root] purchase&#45;server#build&#45;&gt;[root] mocks#build -->
<g id="edge10" class="edge">
<title>[root] purchase&#45;server#build&#45;&gt;[root] mocks#build</title>
<path fill="none" stroke="black" d="M288.73,-288.76C267.27,-278.61 239.48,-265.47 216.75,-254.72"/>
<polygon fill="black" stroke="black" points="218.21,-251.54 207.67,-250.43 215.22,-257.87 218.21,-251.54"/>
</g>
<!-- [root] web#build -->
<g id="node11" class="node">
<title>[root] web#build</title>
<ellipse fill="none" stroke="black" cx="365.06" cy="-378" rx="70.39" ry="18"/>
<text text-anchor="middle" x="365.06" y="-374.3" font-family="Times,serif" font-size="14.00">[root] web#build</text>
</g>
<!-- [root] web#build&#45;&gt;[root] config&#45;min#build -->
<g id="edge15" class="edge">
<title>[root] web#build&#45;&gt;[root] config&#45;min#build</title>
<path fill="none" stroke="black" d="M435.17,-377.02C519.67,-372.58 655.17,-349.8 694.06,-252 699.97,-237.13 703.05,-229.23 694.06,-216 681.43,-197.43 661.19,-185.37 640.22,-177.53"/>
<polygon fill="black" stroke="black" points="641.16,-174.15 630.56,-174.22 638.89,-180.77 641.16,-174.15"/>
</g>
<!-- [root] web#build&#45;&gt;[root] tsconfig#build -->
<g id="edge17" class="edge">
<title>[root] web#build&#45;&gt;[root] tsconfig#build</title>
<path fill="none" stroke="black" d="M294.98,-376.88C202.44,-375.05 46.95,-365.67 11.06,-324 -30.29,-276 62.04,-224.29 76.06,-216 118.12,-191.13 171.08,-177.93 215.04,-170.92"/>
<polygon fill="black" stroke="black" points="215.78,-174.35 225.14,-169.4 214.73,-167.43 215.78,-174.35"/>
</g>
<!-- [root] web#build&#45;&gt;[root] ui#build -->
<g id="edge18" class="edge">
<title>[root] web#build&#45;&gt;[root] ui#build</title>
<path fill="none" stroke="black" d="M429.12,-370.59C491.37,-363.03 579.92,-348.33 604.06,-324 619.93,-308.01 624.01,-282.22 624.52,-262.51"/>
<polygon fill="black" stroke="black" points="628.02,-262.27 624.48,-252.28 621.02,-262.29 628.02,-262.27"/>
</g>
<!-- [root] web#build&#45;&gt;[root] purchase#build -->
<g id="edge16" class="edge">
<title>[root] web#build&#45;&gt;[root] purchase#build</title>
<path fill="none" stroke="black" d="M318.64,-364.4C276.33,-352.93 213.58,-335.9 167.4,-323.37"/>
<polygon fill="black" stroke="black" points="168.09,-319.93 157.52,-320.69 166.25,-326.69 168.09,-319.93"/>
</g>
</g>
</svg>
